<?xml version="1.0" standalone="no"?>
<!DOCTYPE svg PUBLIC "-//W3C//DTD SVG 20010904//EN"
 "http://www.w3.org/TR/2001/REC-SVG-20010904/DTD/svg10.dtd">
<svg version="1.0" xmlns="http://www.w3.org/2000/svg"
 width="260.000000pt" height="260.000000pt" viewBox="0 0 260.000000 260.000000"
 preserveAspectRatio="xMidYMid meet">
<metadata>
Created by potrace 1.11, written by Peter Selinger 2001-2013
</metadata>
<g transform="translate(0.000000,260.000000) scale(0.100000,-0.100000)"
fill="#000000" stroke="none">
<path d="M1224 2386 c-97 -43 -172 -235 -189 -492 l-7 -102 -77 62 c-158 128
-278 185 -386 186 -59 0 -76 -4 -107 -25 -49 -33 -82 -103 -75 -158 11 -82
140 -303 256 -438 19 -22 32 -41 30 -42 -2 -2 -52 -15 -112 -30 -177 -44 -304
-114 -343 -188 -18 -36 -18 -102 0 -138 22 -43 81 -89 128 -102 24 -6 59 -18
78 -25 50 -21 251 -72 320 -82 55 -8 55 -12 10 -137 -46 -126 -53 -250 -18
-315 43 -80 148 -114 223 -74 17 9 59 32 95 50 36 19 72 38 80 43 8 5 52 31
97 57 46 26 88 53 94 60 6 8 16 14 22 14 6 0 19 7 29 17 10 9 20 14 21 12 2
-2 24 -35 50 -74 83 -127 173 -195 257 -195 83 0 153 58 165 139 3 20 12 57
20 83 23 77 40 284 29 353 l-10 60 156 0 c148 0 157 1 210 27 76 38 103 76
108 157 l4 63 -88 87 c-127 125 -238 185 -365 199 l-64 7 52 38 c78 57 215
206 246 269 38 75 44 126 22 184 -41 107 -147 132 -311 74 -114 -40 -205 -95
-287 -172 l-67 -63 0 130 c-1 203 -24 323 -79 405 -53 80 -139 110 -217 76z
m131 -16 c54 -20 104 -102 132 -218 19 -83 25 -394 7 -412 -9 -9 -13 7 -18 62
-25 272 -82 415 -183 460 -53 23 -94 19 -146 -16 l-34 -24 11 30 c6 17 28 50
48 73 52 59 108 72 183 45z m-55 -125 c60 -31 107 -119 134 -251 21 -100 33
-289 19 -297 -6 -4 -13 14 -17 46 -22 164 -79 311 -146 371 -36 32 -46 36 -94
36 -40 0 -60 -6 -81 -22 l-28 -22 6 32 c20 97 123 151 207 107z m-14 -146 c59
-57 108 -187 134 -353 15 -93 -2 -106 -25 -19 -28 108 -86 223 -133 265 -53
47 -84 56 -139 36 l-43 -16 0 32 c0 22 9 40 28 58 36 34 49 38 100 34 33 -3
52 -12 78 -37z m-616 -92 c133 -48 354 -207 363 -262 2 -16 4 -31 3 -32 -1 -1
-25 13 -54 32 -160 108 -261 150 -362 150 -62 0 -81 -4 -106 -22 -36 -26 -64
-77 -65 -120 -1 -25 -3 -23 -25 22 -45 94 -24 189 52 232 51 29 111 29 194 0z
m1429 3 c22 -11 49 -36 61 -55 29 -47 25 -129 -10 -199 -48 -96 -281 -316
-335 -316 -20 0 -14 9 42 63 117 112 200 231 218 315 17 82 -34 174 -106 189
-28 5 -30 7 -14 14 37 14 105 9 144 -11z m-863 -12 c18 -12 46 -45 63 -74 30
-48 81 -182 95 -251 11 -50 -10 -47 -29 5 -48 128 -134 241 -187 243 -41 2
-73 -3 -82 -12 -18 -17 -26 -9 -26 24 0 78 94 114 166 65z m749 -12 c74 -31
97 -134 51 -231 -34 -73 -105 -163 -197 -249 -90 -85 -143 -107 -67 -28 161
167 231 329 183 422 -20 38 -62 70 -94 70 l-26 1 25 14 c32 18 82 19 125 1z
m-94 -41 c39 -21 69 -71 69 -115 -1 -82 -80 -217 -198 -338 -40 -43 -64 -63
-53 -47 122 171 157 237 167 312 4 31 2 65 -6 87 -12 36 -55 76 -84 76 -21 0
-20 16 2 29 25 15 69 13 103 -4z m-667 -65 c44 -39 88 -108 122 -193 34 -86
20 -110 -20 -35 -77 142 -153 191 -238 153 -16 -6 -18 -1 -18 34 0 34 4 43 28
55 44 25 87 20 126 -14z m593 10 c87 -53 55 -198 -86 -388 -65 -88 -90 -111
-41 -38 17 24 47 79 67 122 33 69 38 88 38 152 0 70 -1 75 -33 103 -19 17 -44
29 -60 29 l-27 0 25 20 c32 25 76 25 117 0z m-1097 -22 c53 -16 146 -64 238
-124 68 -44 82 -58 82 -80 0 -14 -3 -24 -7 -22 -230 117 -339 148 -420 117
-41 -15 -81 -57 -89 -93 l-7 -30 -23 29 c-35 44 -39 85 -16 138 35 79 119 102
242 65z m1017 -28 c67 -40 63 -147 -12 -289 -58 -109 -79 -126 -38 -32 73 171
50 290 -58 293 -16 1 -29 2 -29 4 0 1 15 11 33 23 40 26 63 26 104 1z m-550
-47 c37 -17 97 -90 133 -162 33 -66 11 -73 -35 -11 -47 65 -99 100 -145 100
-41 0 -60 14 -60 46 0 15 9 26 28 32 37 14 40 14 79 -5z m488 -9 c58 -38 54
-142 -12 -287 -41 -88 -53 -98 -21 -16 15 38 21 78 22 136 1 77 -1 84 -27 110
-21 22 -36 27 -67 27 l-40 -1 32 23 c37 28 79 31 113 8z m-895 -46 c79 -19
249 -106 262 -133 6 -14 9 -28 6 -31 -3 -3 -33 6 -67 21 -175 73 -323 72 -369
-4 l-19 -31 -32 34 c-31 32 -32 36 -22 69 29 86 101 109 241 75z m847 -22 c25
-22 28 -30 27 -88 0 -37 -10 -91 -23 -131 -26 -76 -35 -85 -20 -17 6 25 9 74
7 109 -4 70 -24 97 -80 108 -34 7 -36 20 -5 33 38 15 65 11 94 -14z m-417 -36
c42 -30 103 -117 96 -137 -5 -12 -27 4 -96 73 -50 48 -90 90 -90 92 0 11 65
-10 90 -28z m-70 -15 c29 -30 31 -35 14 -35 -10 1 -32 12 -49 25 -25 21 -28
27 -15 35 8 5 15 10 16 10 0 0 15 -16 34 -35z m430 5 c28 -15 43 -73 35 -137
-12 -95 -24 -107 -24 -24 -1 70 -3 75 -36 108 -19 19 -35 41 -35 49 0 16 33
18 60 4z m-70 -9 c0 -6 -4 -13 -10 -16 -5 -3 -10 1 -10 9 0 9 5 16 10 16 6 0
10 -4 10 -9z m-390 -32 c0 -5 -4 -9 -10 -9 -5 0 -10 7 -10 16 0 8 5 12 10 9 6
-3 10 -10 10 -16z m-294 0 c32 -6 100 -27 151 -47 79 -31 92 -39 95 -62 l4
-26 -55 18 c-133 44 -242 46 -303 4 l-34 -23 -32 27 c-38 31 -39 39 -11 74 33
42 88 53 185 35z m671 -36 c-3 -10 -5 -4 -5 12 0 17 2 24 5 18 2 -7 2 -21 0
-30z m-300 -27 c18 -16 35 -27 38 -24 3 3 -13 22 -35 42 -22 20 -37 36 -34 36
24 0 98 -60 116 -95 11 -19 10 -19 -9 -2 -23 20 -40 23 -24 3 15 -18 -96 39
-139 72 -2 1 2 7 10 12 16 10 26 4 77 -44z m359 33 c13 -15 19 -40 22 -92 2
-52 0 -68 -7 -57 -6 8 -11 27 -11 41 0 14 -11 43 -25 63 -35 52 -19 89 21 45z
m-89 -11 c-3 -8 -6 -5 -6 6 -1 11 2 17 5 13 3 -3 4 -12 1 -19z m-887 -23 c13
-14 19 -25 13 -25 -6 0 -18 11 -27 25 -9 14 -15 25 -13 25 2 0 14 -11 27 -25z
m557 -17 c-6 -4 -15 -2 -19 5 -14 21 -9 28 12 15 13 -9 16 -14 7 -20z m330
-10 c-3 -7 -5 -2 -5 12 0 14 2 19 5 13 2 -7 2 -19 0 -25z m-20 0 c-3 -8 -6 -5
-6 6 -1 11 2 17 5 13 3 -3 4 -12 1 -19z m93 -26 c5 -20 10 -50 9 -67 l-1 -30
-10 35 c-5 19 -16 43 -25 52 -9 10 -12 25 -8 37 9 29 22 18 35 -27z m-329 1
c58 -42 49 -59 -13 -23 -29 16 -54 34 -56 40 -7 19 30 10 69 -17z m-546 -24
c20 -22 20 -22 0 -11 -11 5 -29 20 -40 33 -20 22 -20 22 0 11 11 -5 29 -20 40
-33z m350 9 c56 -19 71 -28 73 -46 2 -12 2 -22 0 -22 -2 0 -35 7 -73 15 -90
19 -131 19 -193 -1 -49 -16 -51 -16 -81 5 -17 12 -31 29 -31 37 0 49 177 56
305 12z m148 -19 c-10 -3 -21 -1 -25 5 -14 21 -8 26 18 14 23 -11 24 -13 7
-19z m-493 -30 c0 -14 -5 -11 -31 17 l-24 27 28 -18 c15 -9 27 -21 27 -26z
m854 -9 l7 -25 -19 24 c-11 14 -17 31 -14 39 6 17 15 4 26 -38z m-313 19 c11
-5 17 -14 14 -19 -6 -9 -65 14 -65 25 0 9 31 5 51 -6z m-476 -24 c39 -32 28
-32 -15 0 -19 14 -30 25 -24 25 5 0 23 -11 39 -25z m440 -3 c-3 -3 -11 0 -18
7 -9 10 -8 11 6 5 10 -3 15 -9 12 -12z m-430 -40 c-7 -7 -55 27 -55 39 0 5 13
0 30 -12 16 -13 28 -25 25 -27z m270 39 c28 -7 26 -8 -20 -14 -111 -15 -184
-19 -196 -11 -39 24 133 44 216 25z m93 -38 c3 -10 -17 -13 -80 -13 -45 0
-100 -5 -122 -11 -31 -9 -41 -8 -53 4 -14 13 -5 16 73 21 49 4 100 8 114 10
41 5 63 2 68 -11z m-393 -11 c-3 -3 -11 0 -18 7 -9 10 -8 11 6 5 10 -3 15 -9
12 -12z m1278 11 c-7 -2 -19 -2 -25 0 -7 3 -2 5 12 5 14 0 19 -2 13 -5z m-249
-24 c-3 -5 -10 -7 -15 -3 -5 3 -7 10 -3 15 3 5 10 7 15 3 5 -3 7 -10 3 -15z
m303 15 c-3 -3 -12 -4 -19 -1 -8 3 -5 6 6 6 11 1 17 -2 13 -5z m-1211 -45 c8
-13 -21 1 -51 26 -19 15 -18 15 12 1 17 -9 35 -21 39 -27z m374 31 c0 -5 -4
-10 -10 -10 -5 0 -10 5 -10 10 0 6 5 10 10 10 6 0 10 -4 10 -10z m586 -37 c-4
-17 -24 -45 -44 -64 -20 -19 -27 -23 -15 -9 26 29 46 78 37 91 -3 5 -2 14 2
20 12 20 26 -8 20 -38z m41 36 c22 -22 -13 -81 -72 -122 l-30 -20 32 34 c36
38 55 81 47 104 -7 18 7 20 23 4z m183 -9 c0 -4 -11 -5 -25 -2 -14 2 -25 8
-25 12 0 4 11 5 25 2 14 -2 25 -8 25 -12z m-1273 4 c-3 -3 -12 -4 -19 -1 -8 3
-5 6 6 6 11 1 17 -2 13 -5z m1148 -21 c-9 -39 -57 -86 -118 -117 -29 -15 -41
-19 -27 -9 52 37 100 92 106 122 5 22 12 31 26 31 17 0 19 -4 13 -27z m182 4
c4 -7 0 -8 -11 -4 -10 4 -22 7 -27 7 -5 0 -9 4 -9 9 0 12 38 2 47 -12z m40 17
c-3 -3 -12 -4 -19 -1 -8 3 -5 6 6 6 11 1 17 -2 13 -5z m-1403 -31 l24 -27 -99
-37 c-173 -64 -270 -139 -284 -218 -7 -40 6 -85 33 -115 16 -18 16 -18 -8 -11
-113 34 -177 116 -156 200 15 57 99 125 209 167 52 20 221 67 245 68 7 0 23
-12 36 -27z m96 -11 c-12 -4 -50 17 -50 28 0 5 13 1 30 -8 16 -9 25 -18 20
-20z m133 31 c-7 -2 -19 -2 -25 0 -7 3 -2 5 12 5 14 0 19 -2 13 -5z m167 -3
c28 -8 22 -12 -50 -28 -86 -20 -93 -21 -112 -11 -31 17 -20 26 40 37 70 12 90
12 122 2z m610 6 c0 -3 -4 -8 -10 -11 -5 -3 -10 -1 -10 4 0 6 5 11 10 11 6 0
10 -2 10 -4z m40 -19 c0 -13 -6 -32 -14 -42 -13 -18 -14 -17 -9 10 9 58 23 77
23 32z m183 17 c23 -9 2 -59 -37 -89 -33 -25 -165 -89 -171 -83 -2 2 21 16 50
32 62 32 125 96 125 126 0 21 8 24 33 14z m68 -14 c19 0 7 -32 -26 -69 -36
-40 -103 -74 -190 -97 -77 -21 -77 -16 2 15 89 35 148 81 165 127 8 22 17 33
26 29 7 -3 18 -5 23 -5z m135 -11 c3 -5 1 -9 -5 -9 -17 0 -41 12 -41 20 0 10
38 1 46 -11z m-416 -5 c0 -8 -5 -12 -10 -9 -6 4 -8 11 -5 16 9 14 15 11 15 -7z
m349 -33 c-19 -55 -71 -92 -174 -124 -62 -19 -144 -31 -130 -19 6 5 30 14 55
21 103 30 186 90 197 142 5 25 7 26 33 17 26 -9 28 -12 19 -37z m-1184 19 c3
-6 -1 -7 -9 -4 -18 7 -21 14 -7 14 6 0 13 -4 16 -10z m232 4 c-3 -3 -12 -4
-19 -1 -8 3 -5 6 6 6 11 1 17 -2 13 -5z m570 -26 c-3 -7 -5 -2 -5 12 0 14 2
19 5 13 2 -7 2 -19 0 -25z m453 -21 c0 -39 -62 -99 -124 -120 -67 -23 -205
-42 -217 -30 -7 7 8 14 43 21 131 26 232 90 245 154 5 24 8 26 29 16 18 -8 24
-19 24 -41z m51 36 c13 -15 12 -15 -8 -4 -24 12 -29 21 -14 21 5 0 15 -7 22
-17z m-1326 -5 c14 -6 25 -15 25 -20 0 -7 -55 15 -69 28 -9 9 20 3 44 -8z
m-65 -8 c0 -5 -2 -10 -4 -10 -3 0 -8 5 -11 10 -3 6 -1 10 4 10 6 0 11 -4 11
-10z m281 -10 c-27 -23 -40 -24 -76 -8 -24 11 -25 13 -8 19 10 4 38 8 63 8
l45 0 -24 -19z m589 5 c0 -8 -2 -15 -4 -15 -2 0 -6 7 -10 15 -3 8 -1 15 4 15
6 0 10 -7 10 -15z m-900 -20 c13 -14 22 -26 19 -28 -2 -1 -37 -18 -78 -37
-103 -48 -186 -111 -211 -159 -22 -45 -26 -101 -8 -119 9 -9 4 -12 -26 -12
-30 0 -45 7 -72 34 -28 28 -34 41 -34 77 0 77 44 126 170 190 61 31 182 77
206 78 6 1 21 -10 34 -24z m89 -3 c-14 -5 -39 6 -39 17 0 5 11 4 25 -2 13 -7
20 -14 14 -15z m791 7 c0 -6 -4 -7 -10 -4 -5 3 -10 11 -10 16 0 6 5 7 10 4 6
-3 10 -11 10 -16z m550 3 c20 -16 21 -22 11 -58 -13 -49 -50 -86 -116 -115
-41 -17 -71 -22 -159 -23 -133 -1 -151 15 -34 31 139 19 227 70 249 144 14 44
18 46 49 21z m-1065 -2 c-3 -5 -14 -10 -23 -9 -14 0 -13 2 3 9 27 11 27 11 20
0z m130 0 c-3 -5 -12 -10 -18 -10 -7 0 -6 4 3 10 19 12 23 12 15 0z m-325 -10
c8 -5 11 -10 5 -10 -5 0 -17 5 -25 10 -8 5 -10 10 -5 10 6 0 17 -5 25 -10z
m689 -9 c10 -17 8 -18 -13 -8 -14 7 -22 15 -20 19 9 14 23 9 33 -11z m644 -19
c24 -21 22 -86 -4 -128 -42 -68 -147 -104 -303 -104 -84 0 -97 2 -106 19 -5
11 -10 22 -10 24 0 2 37 7 83 10 147 12 234 50 278 121 10 17 19 44 19 59 0
29 7 29 43 -1z m-1333 2 l25 -15 -30 6 c-16 4 -34 11 -39 16 -16 15 16 10 44
-7z m180 7 c0 -12 -21 -19 -38 -13 -11 4 -11 6 0 13 17 11 38 11 38 0z m-255
-12 c11 -17 2 -18 -19 -3 -17 12 -17 14 -4 14 9 0 20 -5 23 -11z m754 -8 c10
-17 8 -18 -13 -8 -17 8 -21 14 -13 19 16 10 15 11 26 -11z m-770 -44 c-2 -2
-35 -24 -74 -49 -107 -69 -165 -133 -165 -181 0 -23 -5 -27 -46 -33 -34 -5
-49 -3 -55 7 -52 80 25 178 216 270 l79 39 25 -25 c14 -13 23 -26 20 -28z m61
33 c0 -5 -4 -10 -9 -10 -6 0 -13 5 -16 10 -3 6 1 10 9 10 9 0 16 -4 16 -10z
m105 0 c19 -8 19 -9 -2 -9 -12 -1 -25 4 -28 9 -7 12 2 12 30 0z m132 4 c-3 -3
-12 -4 -19 -1 -8 3 -5 6 6 6 11 1 17 -2 13 -5z m1209 -66 c36 -69 -6 -162 -92
-206 -42 -22 -155 -34 -249 -27 -98 7 -119 15 -130 53 -6 22 -6 22 103 22 203
0 313 63 316 180 1 37 1 38 19 22 11 -9 25 -29 33 -44z m-1346 30 c0 -6 -7 -7
-16 -4 -9 3 -22 6 -30 6 -9 0 -13 4 -10 9 7 11 56 2 56 -11z m-80 -8 c0 -13
-11 -13 -30 0 -12 8 -11 10 8 10 12 0 22 -4 22 -10z m-33 -24 l22 -23 -47 -34
c-56 -40 -119 -105 -127 -130 -6 -19 -17 -24 -82 -34 -38 -6 -43 -5 -43 13 0
24 44 89 82 122 29 24 158 108 168 109 3 0 15 -10 27 -23z m73 14 c0 -5 -4
-10 -10 -10 -5 0 -10 5 -10 10 0 6 5 10 10 10 6 0 10 -4 10 -10z m97 4 c-3 -3
-12 -4 -19 -1 -8 3 -5 6 6 6 11 1 17 -2 13 -5z m-12 -24 c3 -5 -3 -10 -14 -10
-12 0 -21 5 -21 10 0 6 6 10 14 10 8 0 18 -4 21 -10z m-78 -16 c-3 -3 -12 -4
-19 -1 -8 3 -5 6 6 6 11 1 17 -2 13 -5z m-46 -76 c-50 -71 -54 -74 -106 -87
-27 -7 -56 -15 -62 -17 -17 -5 -17 -3 11 35 13 18 55 57 92 87 59 46 70 52 82
40 12 -12 10 -20 -17 -58z m176 56 c-3 -3 -12 -4 -19 -1 -8 3 -5 6 6 6 11 1
17 -2 13 -5z m-141 -42 c-17 -16 -18 -16 -5 5 7 12 15 20 18 17 3 -2 -3 -12
-13 -22z m49 -1 c8 -15 -36 -58 -72 -69 -18 -6 -33 -8 -33 -5 0 9 82 83 91 83
4 0 10 -4 14 -9z m17 -33 c-7 -7 -12 -8 -12 -2 0 14 12 26 19 19 2 -3 -1 -11
-7 -17z m38 -13 c0 -2 -15 -12 -32 -20 l-33 -16 24 21 c22 19 41 26 41 15z
m-90 -34 c0 -8 -70 -41 -86 -41 -18 0 8 26 37 36 43 16 49 16 49 5z m80 -1 c0
-11 -36 -35 -67 -45 -18 -5 -22 -3 -17 8 4 12 28 25 82 46 1 1 2 -3 2 -9z
m685 0 c3 -5 2 -10 -4 -10 -5 0 -13 5 -16 10 -3 6 -2 10 4 10 5 0 13 -4 16
-10z m35 0 c0 -5 -2 -10 -4 -10 -3 0 -8 5 -11 10 -3 6 -1 10 4 10 6 0 11 -4
11 -10z m-660 -13 c0 -12 -58 -53 -65 -45 -6 5 19 34 40 46 25 14 25 14 25 -1z
m47 -24 c-14 -15 -29 -24 -33 -21 -3 4 6 19 21 33 14 15 29 24 33 21 3 -4 -6
-19 -21 -33z m663 16 c0 -6 -4 -7 -10 -4 -5 3 -10 11 -10 16 0 6 5 7 10 4 6
-3 10 -11 10 -16z m-625 -37 c-15 -16 -16 -15 -4 12 7 15 15 23 17 16 3 -7 -3
-19 -13 -28z m-355 14 c-16 -14 -74 -36 -96 -36 -8 0 -14 6 -14 14 0 12 58 31
110 35 13 1 13 -1 0 -13z m98 -8 c-14 -20 -88 -55 -88 -40 0 16 17 29 55 45
51 21 50 21 33 -5z m87 -10 c-6 -15 -74 -52 -81 -45 -11 11 10 34 44 48 42 18
45 18 37 -3z m75 -2 c0 -8 -15 -24 -34 -35 -41 -26 -45 -26 -39 -2 3 14 46 44
71 50 1 1 2 -5 2 -13z m61 -14 c-13 -24 -61 -57 -61 -41 0 13 61 72 67 65 3
-2 0 -13 -6 -24z m665 1 c-7 -7 -26 7 -26 19 0 6 6 6 15 -2 9 -7 13 -15 11
-17z m-1112 3 c-8 -21 -84 -32 -95 -15 -6 11 1 15 29 20 64 11 72 10 66 -5z
m492 -24 c-14 -14 -28 -23 -31 -20 -9 9 36 59 47 52 6 -4 0 -17 -16 -32z m74
29 c0 -5 -7 -14 -15 -21 -12 -10 -15 -10 -15 2 0 8 3 18 7 21 9 10 23 9 23 -2z
m468 -10 c3 -8 -1 -12 -9 -9 -7 2 -15 10 -17 17 -3 8 1 12 9 9 7 -2 15 -10 17
-17z m43 3 c12 -14 11 -16 -5 -13 -11 2 -21 10 -24 17 -5 17 13 15 29 -4z
m-968 -13 c-5 -22 -79 -46 -89 -29 -8 13 -3 16 47 32 24 8 45 14 46 15 0 1 -1
-8 -4 -18z m1047 -2 c0 -6 -4 -7 -10 -4 -5 3 -10 11 -10 16 0 6 5 7 10 4 6 -3
10 -11 10 -16z m-1365 1 c7 -12 -12 -12 -40 0 -18 8 -17 9 7 9 15 1 30 -3 33
-9z m100 0 c4 -6 -10 -10 -34 -10 -22 0 -43 5 -46 10 -4 6 10 10 34 10 22 0
43 -4 46 -10z m692 -12 c-3 -8 -6 -5 -6 6 -1 11 2 17 5 13 3 -3 4 -12 1 -19z
m110 0 c-3 -8 -6 -5 -6 6 -1 11 2 17 5 13 3 -3 4 -12 1 -19z m-487 -3 c0 -15
-37 -35 -66 -35 -27 0 -14 27 19 38 45 14 47 14 47 -3z m808 -13 l15 -23 -33
13 c-40 16 -53 41 -20 36 13 -1 30 -13 38 -26z m122 2 c0 -8 -4 -12 -10 -9 -5
3 -10 13 -10 21 0 8 5 12 10 9 6 -3 10 -13 10 -21z m-1130 1 c0 -10 -10 -15
-34 -15 -46 0 -56 18 -14 23 18 2 36 5 41 5 4 1 7 -5 7 -13z m283 -4 c-8 -31
-73 -51 -73 -22 0 7 57 39 72 40 3 1 4 -7 1 -18z m273 -8 c-10 -10 -19 5 -10
18 6 11 8 11 12 0 2 -7 1 -15 -2 -18z m505 -4 c6 -12 6 -19 0 -19 -12 0 -41
28 -41 40 0 15 30 -1 41 -21z m37 -8 c-14 -5 -31 15 -23 29 5 8 11 6 20 -7 9
-11 10 -19 3 -22z m-738 14 c0 -8 -13 -21 -30 -30 -26 -14 -30 -14 -30 -1 0 9
12 22 28 30 34 19 32 19 32 1z m119 -26 c-15 -11 -25 -14 -28 -7 -2 6 7 19 20
29 15 11 25 14 28 7 2 -6 -7 -19 -20 -29z m685 25 c3 -8 2 -12 -4 -9 -6 3 -10
10 -10 16 0 14 7 11 14 -7z m-1261 -1 c-7 -2 -21 -2 -30 0 -10 3 -4 5 12 5 17
0 24 -2 18 -5z m527 -6 c0 -8 -11 -19 -25 -25 -30 -14 -35 3 -7 24 22 17 32
17 32 1z m525 4 c3 -5 18 -12 34 -16 26 -5 69 -50 59 -61 -2 -2 -32 10 -66 26
-46 21 -60 33 -56 45 7 17 20 20 29 6z m-871 -16 c-7 -16 -30 -20 -38 -6 -7
11 4 21 25 21 12 0 16 -5 13 -15z m443 -7 c-3 -8 -6 -5 -6 6 -1 11 2 17 5 13
3 -3 4 -12 1 -19z m125 0 c-7 -7 -12 -8 -12 -2 0 14 12 26 19 19 2 -3 -1 -11
-7 -17z m-627 2 c3 -5 -3 -10 -14 -10 -12 0 -21 5 -21 10 0 6 6 10 14 10 8 0
18 -4 21 -10z m155 -11 c-12 -21 -31 -22 -37 -2 -2 6 6 13 19 16 13 2 24 5 26
6 1 0 -2 -8 -8 -20z m422 -1 c-7 -7 -12 -8 -12 -2 0 14 12 26 19 19 2 -3 -1
-11 -7 -17z m228 -4 c0 -8 -4 -14 -10 -14 -5 0 -10 9 -10 21 0 11 5 17 10 14
6 -3 10 -13 10 -21z m320 4 c0 -19 -2 -20 -10 -8 -13 19 -13 30 0 30 6 0 10
-10 10 -22z m-880 -8 c-11 -21 -22 -25 -34 -13 -3 4 4 13 16 20 30 16 30 16
18 -7z m852 -22 c-7 -7 -14 -4 -21 10 -8 15 -8 21 2 25 16 6 32 -22 19 -35z
m-997 22 c3 -6 -4 -10 -17 -10 -18 0 -20 2 -8 10 19 12 18 12 25 0z m235 -5
c0 -8 -9 -15 -20 -15 -25 0 -26 17 -2 23 9 3 18 5 20 6 1 0 2 -6 2 -14z m78 3
c-3 -7 -13 -15 -24 -17 -16 -3 -17 -1 -5 13 16 19 34 21 29 4z m62 2 c0 -5 -7
-10 -16 -10 -8 0 -12 5 -9 10 3 6 10 10 16 10 5 0 9 -4 9 -10z m230 -11 c0 -6
-4 -7 -10 -4 -5 3 -10 11 -10 16 0 6 5 7 10 4 6 -3 10 -11 10 -16z m40 -5 c0
-8 -4 -12 -10 -9 -5 3 -10 13 -10 21 0 8 5 12 10 9 6 -3 10 -13 10 -21z m272
-34 c9 0 21 -13 27 -30 9 -27 8 -30 -12 -30 -22 0 -104 40 -147 72 -19 14 -21
20 -11 32 10 12 20 10 69 -15 31 -16 64 -29 74 -29z m46 35 c10 -22 9 -25 -8
-25 -11 0 -20 4 -20 9 0 5 -3 16 -6 25 -10 27 22 18 34 -9z m-871 -1 c-3 -3
-12 -4 -19 -1 -8 3 -5 6 6 6 11 1 17 -2 13 -5z m374 -27 c-8 -8 -11 -7 -11 4
0 20 13 34 18 19 3 -7 -1 -17 -7 -23z m92 19 c3 -8 3 -24 0 -36 -4 -16 -8 -18
-14 -8 -11 17 -11 58 0 58 5 0 11 -6 14 -14z m-526 -23 c-3 -16 -12 -59 -21
-98 -40 -175 -4 -297 96 -327 l41 -12 -49 -23 c-57 -26 -82 -28 -128 -9 -112
47 -133 183 -59 391 38 104 38 105 84 105 40 0 41 -1 36 -27z m150 21 c-3 -3
-12 -4 -19 -1 -8 3 -5 6 6 6 11 1 17 -2 13 -5z m229 -41 l-15 -28 -1 32 c0 17
6 33 13 36 19 6 20 -9 3 -40z m184 26 c0 -6 -4 -7 -10 -4 -5 3 -10 11 -10 16
0 6 5 7 10 4 6 -3 10 -11 10 -16z m80 0 c0 -5 -4 -9 -10 -9 -5 0 -10 7 -10 16
0 8 5 12 10 9 6 -3 10 -10 10 -16z m370 1 c0 -11 -2 -20 -4 -20 -2 0 -6 9 -9
20 -3 11 -1 20 4 20 5 0 9 -9 9 -20z m-917 -26 c-1 -16 -5 -65 -9 -110 -8
-103 11 -170 62 -212 l34 -28 -30 -29 -30 -29 -47 20 c-57 24 -88 65 -96 131
-7 57 4 156 27 234 16 55 17 56 54 54 35 -1 37 -3 35 -31z m257 -9 c5 -38 -23
-125 -41 -125 -20 0 -26 155 -6 163 28 12 42 1 47 -38z m122 33 c3 -7 -1 -31
-8 -53 -12 -40 -12 -40 -19 -12 -12 45 13 105 27 65z m128 -16 c0 -15 -2 -15
-10 -2 -13 20 -13 33 0 25 6 -3 10 -14 10 -23z m-413 -76 c-1 -82 3 -101 26
-147 l26 -54 -22 -32 c-12 -18 -25 -33 -28 -33 -12 0 -59 42 -70 61 -20 38
-28 123 -18 199 13 100 13 100 52 100 l34 0 0 -94z m87 23 c4 -39 12 -83 17
-96 7 -19 4 -34 -13 -64 -12 -21 -25 -39 -30 -39 -20 0 -41 70 -46 152 -5 95
3 118 43 118 20 0 23 -6 29 -71z m506 37 c28 -19 72 -39 98 -46 49 -12 62 -23
62 -52 0 -29 -75 -24 -131 10 -91 53 -131 101 -96 115 6 3 13 6 14 6 1 1 24
-14 53 -33z m207 18 c3 -8 1 -20 -6 -27 -8 -8 -11 -8 -11 0 0 6 -3 18 -6 27
-3 9 -1 16 5 16 7 0 14 -7 18 -16z m-34 -16 c12 -45 -13 -52 -30 -8 -10 26 -9
30 7 30 10 0 20 -10 23 -22z m-539 -3 c3 -8 -2 -31 -10 -52 -14 -31 -17 -34
-26 -20 -6 12 -5 29 3 52 14 38 24 44 33 20z m138 -39 c-9 -20 -10 -20 -17 6
-9 34 4 58 17 33 7 -11 7 -25 0 -39z m78 33 c0 -11 -4 -18 -10 -14 -5 3 -7 12
-3 20 7 21 13 19 13 -6z m21 -12 c-10 -9 -11 -8 -5 6 3 10 9 15 12 12 3 -3 0
-11 -7 -18z m-151 -52 c-8 -22 -13 -25 -24 -16 -11 9 -12 19 -3 46 10 33 11
34 24 16 10 -15 10 -26 3 -46z m232 18 c60 -50 141 -86 183 -81 35 4 45 -5 45
-41 0 -22 -40 -41 -83 -41 -43 0 -121 47 -181 109 -49 49 -49 51 -31 71 10 11
19 20 21 20 1 0 22 -16 46 -37z m270 -12 c-4 -10 -8 -8 -14 8 -4 13 -5 28 -1
34 9 14 22 -23 15 -42z m-412 19 c0 -11 -6 -20 -14 -20 -9 0 -12 7 -9 20 3 11
9 20 14 20 5 0 9 -9 9 -20z m-154 -61 c-21 -56 -42 -28 -25 31 12 39 13 40 24
19 9 -16 9 -29 1 -50z m535 8 c-7 -7 -13 -2 -21 18 -8 22 -8 30 2 36 17 11 35
-38 19 -54z m-351 43 c0 -5 -4 -10 -10 -10 -5 0 -10 5 -10 10 0 6 5 10 10 10
6 0 10 -4 10 -10z m-82 -36 c-2 -10 -11 -20 -20 -22 -15 -3 -16 0 -6 28 11 33
33 28 26 -6z m-175 -59 c-17 -36 -27 -43 -38 -24 -7 11 10 64 29 87 20 26 27
-25 9 -63z m304 52 c29 -36 115 -103 150 -117 39 -15 112 -15 126 -1 18 18 27
12 27 -17 0 -74 -102 -116 -185 -76 -45 21 -110 78 -156 137 -38 48 -38 49
-21 72 21 31 36 31 59 2z m340 -9 c-3 -8 -6 -5 -6 6 -1 11 2 17 5 13 3 -3 4
-12 1 -19z m-537 -28 c0 -21 -15 -34 -30 -25 -6 4 -5 15 2 30 12 27 28 24 28
-5z m514 -28 c-6 -13 -9 -11 -13 13 -4 17 -2 33 4 37 12 9 19 -27 9 -50z
m-471 32 c3 -3 3 -13 0 -21 -5 -12 -7 -12 -14 -1 -15 23 -4 40 14 22z m147
-98 c102 -108 193 -137 274 -87 l37 23 -7 -28 c-12 -50 -34 -84 -67 -104 -104
-64 -213 -11 -331 161 l-56 82 23 16 c12 8 26 22 31 30 8 13 12 11 25 -10 9
-13 41 -50 71 -83z m-255 83 c4 -5 1 -23 -5 -40 -14 -32 -12 -31 -34 -23 -13
5 -13 9 1 40 17 35 27 41 38 23z m45 -38 c0 -12 -23 -31 -37 -31 -10 0 -10 5
-2 24 10 22 39 27 39 7z m-123 -22 c4 -23 -32 -63 -51 -56 -14 6 -13 10 5 42
21 35 42 42 46 14z m153 17 c0 -3 -4 -8 -10 -11 -5 -3 -10 -1 -10 4 0 6 5 11
10 11 6 0 10 -2 10 -4z m507 -33 c-3 -10 -5 -4 -5 12 0 17 2 24 5 18 2 -7 2
-21 0 -30z m-625 -29 c-9 -13 -25 -24 -35 -24 -17 0 -17 1 -1 29 11 19 23 27
35 24 17 -5 17 -6 1 -29z m48 11 c0 -2 -10 -10 -22 -16 -21 -11 -22 -11 -9 4
13 16 31 23 31 12z m-130 -43 c0 -14 -35 -42 -52 -42 -18 0 -17 2 3 29 12 17
28 27 35 24 8 -3 14 -8 14 -11z m40 -12 c-8 -6 -24 -16 -35 -22 -20 -11 -20
-11 -1 11 11 11 26 21 35 21 14 0 14 -2 1 -10z m-100 -55 c0 -2 -15 -12 -32
-21 l-33 -17 19 22 c17 19 46 29 46 16z"/>
</g>
</svg>
