<?xml version="1.0" standalone="no"?>
<!DOCTYPE svg PUBLIC "-//W3C//DTD SVG 20010904//EN"
 "http://www.w3.org/TR/2001/REC-SVG-20010904/DTD/svg10.dtd">
<svg version="1.0" xmlns="http://www.w3.org/2000/svg"
 width="200.000000pt" height="200.000000pt" viewBox="0 0 200.000000 200.000000"
 preserveAspectRatio="xMidYMid meet">
<metadata>
Created by potrace 1.11, written by Peter Selinger 2001-2013
</metadata>
<g transform="translate(0.000000,200.000000) scale(0.100000,-0.100000)"
fill="#000000" stroke="none">
<path d="M900 1844 c-36 -30 -55 -65 -80 -143 -26 -81 -40 -156 -42 -238 -2
-40 -5 -73 -7 -73 -2 0 -22 15 -45 34 -127 104 -275 173 -350 163 -76 -10
-132 -79 -121 -149 8 -55 11 -61 110 -226 11 -18 41 -61 66 -95 26 -34 46 -63
45 -64 -2 -2 -38 -12 -81 -23 -157 -40 -273 -114 -291 -184 -15 -63 48 -145
128 -166 24 -6 61 -17 83 -25 51 -17 135 -40 205 -56 30 -7 56 -14 58 -15 1 0
-12 -43 -29 -95 -39 -115 -44 -207 -14 -258 23 -39 77 -71 118 -71 27 0 244
106 278 136 8 8 19 14 23 14 4 0 30 16 59 35 47 32 53 34 62 19 34 -57 106
-142 141 -167 76 -53 164 -43 208 26 34 51 72 296 60 387 l-9 65 117 -4 c108
-3 121 -1 172 22 63 29 96 72 96 125 0 48 -20 80 -90 143 -86 79 -166 120
-282 144 -25 5 -23 9 76 107 120 120 151 174 144 250 -7 71 -68 128 -136 128
-87 0 -253 -78 -349 -164 l-50 -45 -6 132 c-12 251 -68 357 -189 357 -36 0
-54 -6 -78 -26z m164 -15 c42 -37 71 -107 85 -213 14 -102 14 -228 -1 -263
-11 -26 -12 -20 -20 60 -15 171 -58 294 -117 336 -39 28 -110 28 -142 1 l-24
-21 32 16 c81 39 155 0 193 -101 36 -97 66 -334 43 -334 -5 0 -16 41 -26 92
-22 112 -57 195 -103 239 -29 28 -43 34 -79 34 -28 0 -50 -6 -64 -19 -21 -19
-21 -19 -21 0 0 11 7 30 16 42 8 12 12 27 9 32 -10 16 42 98 73 114 47 26 106
20 146 -15z m-119 -173 c59 -25 109 -124 135 -271 18 -104 8 -123 -19 -35 -48
154 -107 230 -181 230 -21 0 -42 -4 -45 -10 -11 -17 -25 -11 -25 11 0 33 19
60 53 74 40 18 41 18 82 1z m-428 -111 c60 -27 182 -109 231 -155 17 -17 32
-40 32 -52 0 -19 -1 -20 -22 -5 -55 39 -161 97 -212 116 -126 47 -226 11 -238
-85 l-3 -29 -18 34 c-26 48 -27 113 -1 148 49 67 125 77 231 28z m1108 21 c42
-18 75 -69 75 -117 0 -55 -47 -137 -125 -214 -79 -81 -129 -119 -165 -130 -19
-6 -9 10 46 66 128 134 174 226 153 304 -11 39 -60 85 -92 86 -20 1 -20 2 3 9
39 12 68 11 105 -4z m-676 -22 c36 -30 83 -124 105 -210 19 -73 19 -74 6 -74
-5 0 -10 5 -10 11 0 28 -66 145 -101 180 -32 32 -46 39 -77 39 -21 0 -43 -5
-50 -12 -9 -9 -12 -4 -12 24 0 68 80 92 139 42z m621 -26 c30 -30 32 -35 28
-89 -5 -75 -49 -146 -151 -247 -43 -42 -79 -78 -80 -79 -1 -1 -14 -4 -29 -7
-21 -3 -26 -1 -21 11 5 12 3 14 -8 7 -8 -4 -23 -9 -35 -10 l-21 -1 19 61 c35
110 8 189 -63 189 l-32 0 23 19 c12 10 33 18 47 18 83 0 101 -92 43 -223 -12
-27 -20 -51 -17 -53 6 -6 42 80 57 135 22 81 -13 151 -74 151 l-31 0 33 21
c37 24 71 20 104 -13 33 -33 21 -116 -31 -214 -47 -90 -48 -112 -2 -31 42 74
61 131 61 184 0 36 -6 50 -29 74 -16 16 -38 29 -48 29 -17 1 -17 1 1 15 63 47
145 -21 130 -107 -7 -38 -56 -140 -88 -183 -36 -48 -40 -63 -7 -25 52 60 104
174 105 229 1 42 -4 55 -28 80 -17 17 -39 31 -50 31 -21 1 -21 1 -2 15 42 31
114 7 136 -45 27 -64 -12 -159 -117 -286 -40 -48 -51 -65 -28 -44 47 44 119
144 145 201 11 24 20 64 20 88 0 36 -6 49 -34 77 -19 19 -42 34 -52 34 -16 0
-17 2 -4 10 8 5 34 10 57 10 33 0 48 -6 73 -32z m-635 -70 c36 -31 75 -97 101
-170 20 -56 1 -55 -31 3 -52 97 -119 144 -171 120 -23 -10 -24 -9 -24 24 0 62
67 75 125 23z m-350 -26 c109 -51 195 -113 195 -139 0 -22 -1 -22 -62 11 -90
49 -198 80 -252 72 -44 -7 -86 -40 -100 -80 -6 -18 -7 -18 -26 -1 -14 13 -20
31 -20 63 0 37 5 49 35 79 35 35 37 36 100 31 42 -4 86 -16 130 -36z m314 -37
c34 -17 75 -64 101 -116 36 -70 19 -82 -25 -19 -32 46 -81 80 -117 80 -46 0
-65 44 -25 60 31 12 34 12 66 -5z m-284 -56 c96 -37 170 -82 173 -107 3 -22 3
-23 -25 -9 -54 28 -165 57 -217 57 -57 -1 -93 -17 -110 -49 -12 -21 -12 -21
-41 9 l-30 31 20 37 c35 64 115 75 230 31z m639 -5 c25 -24 30 -61 16 -123
-18 -83 -31 -96 -24 -25 8 76 -12 122 -56 131 -49 9 -34 31 22 32 15 1 34 -6
42 -15z m-356 -18 c30 -15 60 -46 86 -88 33 -52 -2 -36 -69 32 -67 68 -72 85
-17 56z m-37 -22 l24 -27 -28 7 c-19 4 -26 3 -22 -4 3 -5 2 -10 -3 -10 -5 0
-9 14 -10 30 -1 37 7 38 39 4z m340 5 c30 -16 42 -57 33 -119 l-7 -55 -9 55
c-6 39 -15 61 -33 77 -42 37 -30 67 16 42z m-55 -26 c-10 -10 -19 5 -10 18 6
11 8 11 12 0 2 -7 1 -15 -2 -18z m-428 -43 c64 -26 82 -37 82 -53 0 -15 -5
-18 -22 -13 -152 43 -192 46 -256 15 l-44 -22 -25 26 -26 25 32 33 c31 31 34
31 104 27 49 -4 98 -16 155 -38z m225 -18 c15 -14 27 -30 27 -36 0 -5 -15 4
-32 20 -51 47 -76 62 -43 25 24 -25 26 -31 10 -25 -11 4 -33 16 -50 28 l-29
20 24 7 c29 7 55 -4 93 -39z m194 26 c-3 -8 -6 -5 -6 6 -1 11 2 17 5 13 3 -3
4 -12 1 -19z m64 -30 c7 -27 7 -52 1 -77 l-10 -36 -1 41 c-1 26 -9 52 -22 68
-11 15 -18 33 -15 41 9 25 35 5 47 -37z m-796 2 c10 -11 16 -20 13 -20 -3 0
-13 9 -23 20 -10 11 -16 20 -13 20 3 0 13 -9 23 -20z m450 0 c3 -5 -1 -10 -9
-10 -9 0 -16 5 -16 10 0 6 4 10 9 10 6 0 13 -4 16 -10z m262 -12 c-3 -8 -6 -5
-6 6 -1 11 2 17 5 13 3 -3 4 -12 1 -19z m20 0 c-3 -8 -6 -5 -6 6 -1 11 2 17 5
13 3 -3 4 -12 1 -19z m43 -57 l-1 -36 -14 30 -14 30 5 -35 c4 -28 3 -32 -6
-18 -6 10 -8 34 -4 59 6 38 8 40 21 24 7 -11 13 -35 13 -54z m-436 22 c40 -12
61 -25 66 -39 8 -20 7 -20 -69 -7 -42 7 -89 11 -106 8 -49 -10 -105 -37 -98
-48 4 -6 0 -8 -10 -4 -10 3 -17 2 -17 -4 0 -6 -5 -7 -12 -3 -9 6 -9 9 0 12 10
3 10 7 1 18 -10 12 -8 13 7 8 18 -5 18 -5 0 10 -11 9 -14 16 -8 16 7 0 11 5
10 12 -2 7 13 21 32 31 41 22 111 18 204 -10z m167 6 c40 -28 36 -45 -5 -20
-39 25 -53 27 -36 6 10 -12 10 -15 -4 -15 -11 0 -15 8 -14 25 3 30 20 32 59 4z
m-446 -9 c18 -20 18 -21 -1 -14 -19 7 -18 7 1 -17 l20 -24 -23 19 c-12 11 -20
21 -17 24 3 3 0 11 -6 19 -18 21 6 15 26 -7z m455 -40 c0 -13 -11 -13 -30 0
-12 8 -11 10 8 10 12 0 22 -4 22 -10z m-160 -19 c0 -9 -170 -24 -179 -16 -3 4
1 10 9 15 19 12 170 13 170 1z m70 -26 c0 -12 -17 -15 -87 -17 -49 0 -100 -2
-115 -2 -15 -1 -24 2 -19 7 4 4 46 12 92 16 128 12 129 12 129 -4z m516 -32
c10 -47 12 -49 13 -15 1 36 21 45 21 9 0 -24 -29 -72 -30 -49 0 7 -4 11 -9 8
-4 -3 -6 6 -3 19 2 14 -1 32 -8 40 -8 10 -9 15 -1 15 6 0 13 -12 17 -27z m110
-5 c-2 -23 -13 -41 -41 -65 -52 -45 -67 -42 -22 4 21 20 37 46 37 59 0 12 6
25 13 27 6 3 13 6 14 6 0 1 0 -13 -1 -31z m41 26 c-3 -3 -12 -4 -19 -1 -8 3
-5 6 6 6 11 1 17 -2 13 -5z m-904 -18 c17 -13 16 -14 -11 -24 -23 -8 -29 -7
-29 4 0 10 7 12 21 8 21 -6 21 -6 1 10 -11 8 -15 15 -10 15 6 0 18 -6 28 -13z
m827 -8 c0 -12 -17 -38 -39 -59 -33 -31 -37 -38 -23 -44 25 -9 95 45 107 83 9
32 34 41 42 15 11 -31 -136 -137 -166 -119 -12 8 -6 61 7 59 15 -4 43 38 45
66 2 28 27 27 27 -1z m140 13 c0 -5 -9 -7 -20 -4 -11 3 -20 7 -20 9 0 2 9 4
20 4 11 0 20 -4 20 -9z m-1048 -26 l18 -23 -53 -18 c-117 -38 -214 -100 -242
-155 -19 -36 -19 -63 1 -101 l16 -31 -28 7 c-46 12 -82 44 -99 90 -15 38 -15
47 -2 78 27 63 113 113 267 154 105 28 101 28 122 -1z m191 18 c-7 -2 -19 -2
-25 0 -7 3 -2 5 12 5 14 0 19 -2 13 -5z m132 -2 c15 -6 4 -12 -49 -24 -54 -12
-74 -13 -94 -4 -25 11 -23 12 29 23 65 14 88 15 114 5z m770 -1 c8 -13 -5 -13
-25 0 -13 8 -13 10 2 10 9 0 20 -4 23 -10z m-50 -10 c11 -18 -23 -65 -62 -86
-43 -24 -142 -58 -149 -52 -2 3 13 10 33 17 57 19 116 63 133 98 15 32 33 42
45 23z m95 0 c13 -8 13 -10 -2 -10 -9 0 -20 5 -23 10 -8 13 5 13 25 0z m-320
-10 c0 -5 -2 -10 -4 -10 -3 0 -8 5 -11 10 -3 6 -1 10 4 10 6 0 11 -4 11 -10z
m280 -19 c0 -27 -29 -60 -70 -81 -43 -22 -169 -54 -178 -46 -2 3 1 7 9 10 106
31 167 68 189 112 16 33 50 36 50 5z m-958 -1 c-2 -8 3 -10 15 -6 12 5 15 4 8
-3 -15 -15 -75 -26 -75 -13 0 5 10 8 23 5 20 -4 21 -3 3 7 -15 10 -16 14 -5
21 18 11 35 5 31 -11z m1068 -4 c0 -2 -9 -2 -20 1 -11 3 -20 9 -20 15 0 5 9 4
20 -2 11 -6 20 -12 20 -14z m-66 8 c44 -17 -6 -90 -84 -123 -58 -25 -188 -42
-176 -23 4 7 15 12 25 12 70 0 201 79 201 122 0 19 8 22 34 12z m-838 -19
c-21 -16 -36 -18 -60 -9 -28 11 -6 24 37 24 39 -1 41 -2 23 -15z m474 4 c0 -5
-4 -7 -10 -4 -5 3 -10 1 -10 -5 0 -6 -5 -8 -11 -4 -8 4 -7 9 2 15 19 12 29 11
29 -2z m-736 -6 c4 -5 12 -8 17 -8 29 0 3 -25 -63 -60 -139 -74 -186 -125
-175 -192 5 -31 4 -33 -21 -33 -32 0 -43 7 -65 40 -52 76 15 157 188 227 82
33 106 39 119 26z m1161 -6 c41 -31 -16 -116 -97 -143 -57 -19 -199 -25 -205
-9 -2 6 28 15 67 22 100 15 160 48 185 100 22 47 24 48 50 30z m-461 -16 c4
-5 -4 -7 -16 -4 -23 5 -23 5 -3 -10 20 -16 20 -16 -1 -14 -19 1 -22 10 -15 35
2 6 31 1 35 -7z m-559 -11 c19 -8 19 -9 -3 -9 -13 -1 -20 -5 -17 -11 3 -5 2
-10 -4 -10 -5 0 -13 5 -16 10 -3 6 -1 10 5 10 6 0 8 5 5 10 -7 12 2 12 30 0z
m150 0 c-3 -5 -13 -10 -21 -10 -8 0 -12 5 -9 10 3 6 13 10 21 10 8 0 12 -4 9
-10z m925 0 c20 -13 19 -81 -4 -114 -30 -46 -97 -69 -213 -74 -93 -4 -102 -3
-112 15 -10 19 -6 21 62 26 136 11 202 45 227 115 15 45 17 47 40 32z m-1130
-9 c0 -6 -5 -13 -10 -16 -6 -4 -8 -10 -5 -15 3 -4 -17 -22 -45 -39 -77 -48
-129 -99 -142 -142 -10 -36 -14 -39 -49 -39 -29 0 -39 5 -44 20 -20 62 47 138
171 197 58 28 77 33 88 24 9 -8 17 -8 20 -2 3 5 0 12 -6 14 -8 3 -6 6 5 6 9 1
17 -3 17 -8z m135 -11 c-3 -5 -14 -10 -23 -9 -14 0 -13 2 3 9 27 11 27 11 20
0z m-15 -26 c0 -2 -9 -4 -20 -4 -11 0 -20 4 -20 9 0 5 9 7 20 4 11 -3 20 -7
20 -9z m1087 -83 c-4 -35 -13 -52 -40 -77 -44 -41 -91 -54 -193 -54 -108 0
-139 7 -152 35 l-11 23 107 4 c91 3 114 7 152 28 50 28 90 80 90 119 l1 26 25
-29 c22 -25 25 -36 21 -75z m-1147 73 c0 -2 -7 -4 -15 -4 -8 0 -15 4 -15 10 0
5 7 7 15 4 8 -4 15 -8 15 -10z m-40 -15 c0 -6 7 -9 14 -6 27 11 5 -22 -29 -43
-33 -20 -99 -88 -106 -108 -5 -14 -87 -33 -94 -21 -9 13 24 69 59 101 35 33
124 88 144 88 6 0 12 -5 12 -11z m130 -9 c0 -5 -7 -7 -15 -4 -8 4 -15 8 -15
10 0 2 7 4 15 4 8 0 15 -4 15 -10z m-68 -40 c7 -11 18 -20 25 -20 34 0 -2 -47
-42 -56 l-30 -7 26 29 c15 16 24 35 22 42 -3 7 -16 -2 -32 -25 -15 -21 -34
-43 -42 -49 -17 -14 -99 -34 -99 -25 0 9 89 94 120 115 31 21 37 20 52 -4z
m54 -46 c-5 -13 -2 -15 16 -11 22 6 22 5 4 -8 -27 -20 -34 -19 -31 8 3 26 3
27 11 27 3 0 3 -7 0 -16z m609 -34 c-3 -5 -12 -10 -18 -10 -7 0 -6 4 3 10 19
12 23 12 15 0z m-655 -9 c0 -5 -14 -14 -31 -20 -39 -13 -39 -13 -39 -2 0 5 12
14 28 19 35 13 42 14 42 3z m65 -1 c-10 -17 -65 -42 -65 -30 0 6 15 17 33 25
39 17 40 17 32 5z m55 -8 c0 -4 -14 -16 -31 -26 -31 -18 -31 -18 -20 2 13 25
51 43 51 24z m43 -13 c-6 -6 -9 -18 -6 -26 4 -9 -4 -24 -18 -35 -16 -13 -18
-18 -6 -14 20 6 22 -5 5 -22 -19 -19 -25 -14 -26 16 0 16 9 35 21 45 18 15 18
18 4 13 -15 -5 -16 -2 -7 13 10 19 31 32 39 24 3 -2 0 -8 -6 -14z m-263 -8 c0
-13 -9 -18 -53 -26 -49 -10 -49 10 1 23 50 13 52 13 52 3z m76 -10 c-10 -11
-31 -24 -47 -30 -26 -9 -28 -8 -20 7 7 13 52 36 80 41 2 1 -4 -8 -13 -18z
m224 9 c0 -5 -5 -10 -11 -10 -5 0 -7 5 -4 10 3 6 8 10 11 10 2 0 4 -4 4 -10z
m-155 -19 c-3 -6 -19 -18 -36 -26 -26 -14 -29 -14 -29 0 0 8 15 21 33 29 35
14 43 13 32 -3z m201 -22 c2 -27 0 -28 -11 -12 -8 11 -10 22 -4 29 5 6 7 14 4
17 -3 4 -2 4 2 1 4 -3 8 -19 9 -35z m-446 17 c0 -8 -15 -17 -36 -21 -60 -11
-62 11 -2 25 18 4 34 8 36 9 1 1 2 -5 2 -13z m303 -1 c-3 -9 -18 -22 -33 -30
-26 -13 -28 -13 -23 4 3 10 14 23 26 29 31 15 37 14 30 -3z m525 -3 c6 -18
-15 -14 -22 4 -4 10 -1 14 6 12 6 -2 14 -10 16 -16z m47 -4 c-12 -7 -21 -6
-28 2 -9 10 -8 12 6 7 9 -4 17 -2 17 4 0 6 5 7 11 3 8 -5 6 -10 -6 -16z m-480
-8 c-10 -11 -20 -18 -23 -15 -7 6 18 35 31 35 5 0 2 -9 -8 -20z m-570 0 c7
-12 -2 -12 -30 0 -19 8 -19 9 2 9 12 1 25 -3 28 -9z m85 0 c0 -5 -13 -10 -29
-10 -17 0 -33 5 -36 10 -4 6 8 10 29 10 20 0 36 -4 36 -10z m170 -5 c0 -8 -9
-16 -20 -16 -11 -1 -24 -2 -30 -3 -20 -2 -10 19 12 26 35 10 38 9 38 -7z m80
-9 c0 -16 -45 -30 -63 -19 -7 4 0 11 18 19 39 17 45 17 45 0z m650 -6 c9 -18
8 -18 -20 -9 -16 6 -27 15 -24 20 9 15 33 10 44 -11z m100 -1 c0 -6 -4 -7 -10
-4 -5 3 -10 11 -10 16 0 6 5 7 10 4 6 -3 10 -11 10 -16z m-910 2 c0 -11 -49
-21 -55 -10 -3 4 3 10 12 12 30 8 43 7 43 -2z m230 -5 c0 -14 -21 -26 -46 -26
-21 0 -17 16 9 28 30 15 37 14 37 -2z m618 2 c7 -7 12 -15 12 -20 0 -12 -28 2
-34 18 -7 17 6 18 22 2z m36 -4 c4 -10 1 -14 -6 -12 -15 5 -23 28 -10 28 5 0
13 -7 16 -16z m-961 -1 c-7 -2 -19 -2 -25 0 -7 3 -2 5 12 5 14 0 19 -2 13 -5z
m367 -3 c0 -12 -40 -33 -48 -25 -4 4 2 13 12 21 23 16 36 18 36 4z m100 -15
c-10 -12 -9 -15 6 -15 15 0 16 -2 5 -9 -9 -6 -19 -5 -27 2 -10 10 -9 16 4 30
18 21 30 14 12 -8z m138 0 c-3 -3 -9 2 -12 12 -6 14 -5 15 5 6 7 -7 10 -15 7
-18z m-458 5 c0 -5 -9 -10 -21 -10 -11 0 -17 5 -14 10 3 6 13 10 21 10 8 0 14
-4 14 -10z m726 -2 c31 -11 51 -34 40 -46 -8 -8 -96 39 -90 49 7 12 11 11 50
-3z m-783 -5 c-7 -2 -19 -2 -25 0 -7 3 -2 5 12 5 14 0 19 -2 13 -5z m130 -14
c-6 -6 -17 -8 -24 -3 -9 5 -8 9 7 14 23 9 31 3 17 -11z m347 11 c0 -5 -5 -10
-11 -10 -5 0 -7 5 -4 10 3 6 8 10 11 10 2 0 4 -4 4 -10z m449 -44 c-1 -20 -1
-21 -6 -1 -3 11 -9 24 -14 30 -5 5 -9 14 -9 20 0 5 7 1 15 -9 8 -11 14 -29 14
-40z m-724 25 c-3 -6 -11 -8 -17 -5 -6 4 -5 9 3 15 16 10 23 4 14 -10z m403
-16 c-3 -35 -15 -31 -15 5 0 16 4 27 9 24 4 -3 7 -16 6 -29z m49 13 c-3 -8 -6
-5 -6 6 -1 11 2 17 5 13 3 -3 4 -12 1 -19z m248 -14 c8 -20 13 -40 10 -44 -3
-5 0 -10 6 -12 6 -2 9 -13 7 -23 -4 -18 -6 -17 -16 6 -6 15 -12 35 -14 45 -2
11 -9 25 -15 32 -15 16 -17 32 -3 32 5 0 17 -16 25 -36z m-818 20 c-3 -3 -12
-4 -19 -1 -8 3 -5 6 6 6 11 1 17 -2 13 -5z m193 -4 c0 -5 -7 -10 -16 -10 -8 0
-12 5 -9 10 3 6 10 10 16 10 5 0 9 -4 9 -10z m60 0 c0 -5 -7 -10 -16 -10 -8 0
-12 5 -9 10 3 6 10 10 16 10 5 0 9 -4 9 -10z m240 0 c0 -5 -2 -10 -4 -10 -3 0
-8 5 -11 10 -3 6 -1 10 4 10 6 0 11 -4 11 -10z m190 -10 c22 -11 45 -20 53
-20 8 0 19 -11 25 -25 10 -23 9 -25 -11 -25 -24 0 -127 55 -127 69 0 8 10 21
17 21 2 0 21 -9 43 -20z m95 2 c0 -18 -20 -15 -23 4 -3 10 1 15 10 12 7 -3 13
-10 13 -16z m-325 -24 c0 -25 -3 -29 -10 -18 -13 20 -13 50 0 50 6 0 10 -15
10 -32z m-420 10 c-1 -7 -7 -40 -15 -73 -20 -83 -19 -172 3 -215 10 -20 34
-44 57 -57 l40 -22 -37 -16 c-51 -21 -79 -19 -119 8 -52 35 -61 60 -56 157 3
61 12 105 32 158 26 70 28 72 61 72 21 0 34 -5 34 -12z m301 -35 c-9 -16 -10
-15 -11 8 0 14 3 29 8 33 12 12 14 -22 3 -41z m46 25 c-3 -8 -6 -5 -6 6 -1 11
2 17 5 13 3 -3 4 -12 1 -19z m28 -36 c-7 -33 -8 -35 -17 -17 -6 14 -5 31 3 50
14 38 24 17 14 -33z m-302 -55 c-6 -116 9 -169 54 -190 l23 -10 -22 -24 c-18
-19 -29 -23 -52 -19 -87 18 -116 115 -81 265 19 79 20 81 55 81 l28 0 -5 -103z
m147 55 c0 -20 5 -54 10 -74 9 -30 8 -44 -5 -68 -9 -17 -22 -30 -28 -27 -19 6
-36 67 -36 135 -1 56 1 64 22 71 31 12 37 6 37 -37z m62 14 c4 -37 -24 -117
-35 -99 -11 17 -20 100 -14 117 4 9 15 16 26 16 14 0 20 -8 23 -34z m420 -33
c30 -4 42 -12 49 -30 13 -34 13 -33 -23 -33 -36 0 -121 45 -152 79 -15 16 -16
24 -7 35 11 13 18 11 54 -15 22 -16 58 -32 79 -36z m-550 -25 c3 -52 12 -97
23 -121 19 -37 19 -38 -2 -59 -46 -45 -93 19 -93 128 0 110 7 134 40 134 27 0
28 0 32 -82z m618 45 c0 -18 -17 -16 -24 3 -8 22 4 40 15 23 5 -8 9 -20 9 -26z
m-442 -24 c-5 -16 -14 -26 -19 -23 -12 7 -11 31 2 56 16 30 30 3 17 -33z m122
20 c0 -10 -4 -19 -10 -19 -5 0 -10 12 -10 26 0 14 4 23 10 19 6 -3 10 -15 10
-26z m25 -7 c-2 -9 -4 -20 -4 -24 -1 -5 -6 -8 -12 -8 -7 0 -8 7 -4 18 4 9 8
22 8 29 0 7 4 10 8 8 4 -3 6 -13 4 -23z m35 18 c0 -5 -4 -10 -10 -10 -5 0 -10
5 -10 10 0 6 5 10 10 10 6 0 10 -4 10 -10z m-107 -49 c-3 -12 -11 -20 -17 -18
-11 4 -11 26 0 57 9 24 24 -12 17 -39z m193 8 c50 -40 94 -59 139 -59 33 0 36
-2 33 -27 -8 -65 -107 -48 -198 34 -42 38 -48 48 -40 64 14 25 21 24 66 -12z
m-247 -46 c-9 -24 -12 -26 -20 -11 -6 10 -5 27 2 45 9 24 12 26 20 11 6 -10 5
-27 -2 -45z m437 31 c1 -10 5 -27 9 -37 4 -11 3 -23 -4 -30 -8 -8 -11 -7 -12
4 -1 15 -4 30 -15 68 -5 18 -4 23 7 19 8 -3 14 -13 15 -24z m-353 -14 c-3 -11
-9 -20 -14 -20 -10 0 -12 33 -3 43 12 12 22 -3 17 -23z m138 -34 c78 -72 128
-88 192 -61 28 12 22 -37 -9 -66 -57 -53 -149 -21 -237 84 -37 44 -39 49 -27
72 7 14 15 25 18 25 2 0 31 -24 63 -54z m-271 22 c-1 -13 -7 -34 -15 -48 -12
-22 -14 -23 -20 -7 -8 19 12 77 26 77 5 0 9 -10 9 -22z m76 -34 c-4 -12 -10
-14 -17 -7 -5 5 -7 17 -3 27 4 12 10 14 17 7 5 -5 7 -17 3 -27z m-55 -30 c-9
-20 -15 -24 -23 -16 -9 9 -8 18 1 38 9 20 15 24 23 16 9 -9 8 -18 -1 -38z m99
42 c0 -3 -4 -8 -10 -11 -5 -3 -10 -1 -10 4 0 6 5 11 10 11 6 0 10 -2 10 -4z
m103 -63 c60 -64 120 -102 162 -103 12 0 37 8 58 19 l37 19 -7 -27 c-10 -41
-31 -68 -68 -85 -42 -20 -68 -20 -111 0 -40 19 -131 114 -159 167 -19 36 -19
36 0 56 11 11 21 20 23 20 1 1 31 -29 65 -66z m-165 20 c-2 -10 -11 -19 -21
-21 -16 -3 -17 -1 -7 17 13 25 33 28 28 4z m-91 -9 c5 -15 -33 -57 -46 -50 -8
5 -7 16 6 37 17 28 33 34 40 13z m123 12 c0 -3 -4 -8 -10 -11 -5 -3 -10 -1
-10 4 0 6 5 11 10 11 6 0 10 -2 10 -4z m407 -18 c-3 -8 -6 -5 -6 6 -1 11 2 17
5 13 3 -3 4 -12 1 -19z m-497 -18 c0 -5 7 -6 17 -3 11 4 14 3 9 -6 -5 -7 -14
-10 -22 -7 -7 3 -16 1 -19 -4 -4 -6 -13 -10 -21 -10 -12 0 -12 3 -2 20 13 21
38 27 38 10z m-76 -39 c7 -11 -30 -44 -44 -39 -6 2 -5 11 5 26 17 23 30 28 39
13z m21 -20 c-3 -6 -11 -11 -17 -11 -6 0 -6 6 2 15 14 17 26 13 15 -4z m-79
-46 c-26 -19 -42 -19 -26 0 7 8 20 15 29 15 13 -1 13 -3 -3 -15z"/>
<path d="M519 1107 c6 -8 8 -17 4 -21 -4 -4 0 -4 10 0 14 5 15 9 6 20 -6 8
-16 14 -21 14 -7 0 -6 -5 1 -13z"/>
</g>
</svg>
